<svg xmlns="http://www.w3.org/2000/svg" width="448" height="512" viewBox="0 0 448 512" version="1.1"><path d="M 19.214 66.135 C 15.956 67.387, 12.058 70.038, 9.051 73.044 C -6.933 89.028, -1.171 118.180, 19.499 125.914 L 25.075 128 224 128 L 422.925 128 428.501 125.914 C 435.595 123.259, 443.121 115.933, 445.561 109.307 C 446.534 106.663, 447.706 104.073, 448.165 103.550 C 449.228 102.341, 449.270 86.715, 448.210 87.370 C 447.775 87.639, 446.633 85.645, 445.672 82.940 C 443.278 76.199, 435.731 68.791, 428.501 66.086 L 422.925 64 223.712 64.052 C 25.950 64.104, 24.462 64.119, 19.214 66.135 M 0.349 96 C 0.349 100.675, 0.522 102.587, 0.732 100.250 C 0.943 97.912, 0.943 94.087, 0.732 91.750 C 0.522 89.412, 0.349 91.325, 0.349 96 M 19.214 226.135 C 15.956 227.387, 12.058 230.038, 9.051 233.044 C -6.933 249.028, -1.171 278.180, 19.499 285.914 L 25.075 288 224 288 L 422.925 288 428.501 285.914 C 435.595 283.259, 443.121 275.933, 445.561 269.307 C 446.534 266.663, 447.706 264.073, 448.165 263.550 C 449.228 262.341, 449.270 246.715, 448.210 247.370 C 447.775 247.639, 446.633 245.645, 445.672 242.940 C 443.278 236.199, 435.731 228.791, 428.501 226.086 L 422.925 224 223.712 224.052 C 25.950 224.104, 24.462 224.119, 19.214 226.135 M 0.349 256 C 0.349 260.675, 0.522 262.587, 0.732 260.250 C 0.943 257.913, 0.943 254.088, 0.732 251.750 C 0.522 249.412, 0.349 251.325, 0.349 256 M 19.214 386.135 C 15.956 387.387, 12.058 390.038, 9.051 393.044 C -6.933 409.028, -1.171 438.180, 19.499 445.914 L 25.075 448 224 448 L 422.925 448 428.501 445.914 C 435.595 443.259, 443.121 435.933, 445.561 429.307 C 446.534 426.663, 447.706 424.073, 448.165 423.550 C 449.228 422.341, 449.270 406.715, 448.210 407.370 C 447.775 407.639, 446.633 405.645, 445.672 402.940 C 443.278 396.199, 435.731 388.791, 428.501 386.086 L 422.925 384 223.712 384.052 C 25.950 384.104, 24.462 384.119, 19.214 386.135 M 0.349 416 C 0.349 420.675, 0.522 422.587, 0.732 420.250 C 0.943 417.913, 0.943 414.087, 0.732 411.750 C 0.522 409.413, 0.349 411.325, 0.349 416" stroke="none" fill="#fffcfc" fill-rule="evenodd"/><path d="" stroke="none" fill="#fcfcfc" fill-rule="evenodd"/></svg>