<svg xmlns="http://www.w3.org/2000/svg" width="512" height="512" viewBox="0 0 512 512" version="1.1"><path d="M 223.500 1.528 C 177.345 7.541, 135.005 25.189, 98 53.835 C 86.312 62.884, 66.419 82.471, 56.703 94.500 C 29.057 128.725, 10.771 169.093, 2.968 213.128 C 0.200 228.745, -0.880 266.175, 0.943 283.279 C 5.202 323.232, 19.063 362.334, 40.724 395.500 C 50.536 410.523, 59.121 421.171, 72.458 434.860 C 114.405 477.913, 167.327 503.881, 227.500 510.939 C 240.860 512.506, 273.544 512.250, 287.959 510.465 C 362.772 501.203, 429.621 459.279, 471.276 395.500 C 492.169 363.510, 507.586 320.858, 510.595 286.722 C 510.972 282.444, 511.668 278.705, 512.140 278.413 C 512.613 278.121, 513 267.532, 513 254.882 C 513 242.210, 512.612 232.122, 512.136 232.416 C 511.660 232.710, 510.958 229.474, 510.574 225.225 C 509.640 214.868, 506.643 199.637, 502.954 186.501 C 486.258 127.039, 447.823 74.896, 395.500 40.724 C 363.380 19.746, 326.500 6.306, 287.959 1.535 C 272.825 -0.339, 237.855 -0.342, 223.500 1.528 M 245.949 129.124 C 240.696 129.467, 231.471 130.982, 225.449 132.489 C 145.834 152.421, 105.401 240.788, 142.446 313.893 C 154.375 337.435, 178.166 360.376, 202.063 371.383 C 231.392 384.891, 264.461 386.893, 295.259 377.026 C 320.245 369.021, 348.355 348.517, 351.951 335.674 C 355.877 321.651, 344.036 306, 329.500 306 C 323.757 306, 318.742 308.508, 310.227 315.638 C 293.401 329.728, 276.697 336, 256 336 C 242.066 336, 232.395 333.855, 220.500 328.128 C 199.647 318.086, 183.734 298.420, 177.990 275.590 C 175.256 264.724, 175.256 247.276, 177.990 236.410 C 183.758 213.486, 198.751 194.714, 219.500 184.438 C 232.113 178.191, 241.590 176, 256 176 C 276.749 176, 293.602 182.323, 310.279 196.365 C 319.937 204.496, 325.162 206.709, 332.087 205.602 C 343.600 203.761, 353 193.377, 353 182.500 C 353 173.668, 345.267 163.554, 330.247 152.739 C 305.802 135.139, 277.073 127.090, 245.949 129.124 M 0.430 256 C 0.430 268.925, 0.573 274.212, 0.747 267.750 C 0.921 261.287, 0.921 250.712, 0.747 244.250 C 0.573 237.787, 0.430 243.075, 0.430 256" stroke="none" fill="#fffcfc" fill-rule="evenodd"/><path d="" stroke="none" fill="#fcfcfc" fill-rule="evenodd"/></svg>