<svg xmlns="http://www.w3.org/2000/svg" width="512" height="512" viewBox="0 0 512 512" version="1.1"><path d="M 32.762 65.942 C 25.423 68.288, 18.370 72.828, 12.778 78.806 C 3.732 88.478, 0 98.171, -0 112 C -0 125.331, 3.580 135.075, 11.865 144.294 C 17.548 150.617, 238.638 316.055, 244.261 318.191 C 250.548 320.580, 261.452 320.580, 267.739 318.191 C 273.362 316.055, 494.452 150.617, 500.135 144.294 C 504.809 139.093, 508.498 132.679, 510.082 127 C 510.772 124.525, 511.711 122.073, 512.169 121.550 C 513.250 120.314, 513.258 100.723, 512.176 101.391 C 511.723 101.671, 510.784 99.682, 510.089 96.970 C 507.633 87.386, 498.020 75.569, 487.937 69.737 C 477.325 63.599, 493.492 63.995, 255.568 64.054 C 47.871 64.105, 38.252 64.187, 32.762 65.942 M 0.370 112 C 0.370 117.775, 0.535 120.138, 0.737 117.250 C 0.939 114.362, 0.939 109.638, 0.737 106.750 C 0.535 103.862, 0.370 106.225, 0.370 112 M -0 285.106 C -0 407.210, -0.434 399.530, 7.312 414.500 C 12.926 425.348, 22.684 435.088, 33.614 440.754 C 48.633 448.539, 31.122 447.970, 256 447.970 C 480.878 447.970, 463.367 448.539, 478.386 440.754 C 492.999 433.179, 506.157 417.023, 509.948 402 C 510.572 399.525, 511.523 396.600, 512.060 395.500 C 512.681 394.226, 512.939 353.817, 512.768 284.192 L 512.500 174.884 401 258.504 C 334.821 308.135, 287.032 343.304, 283.427 345.028 C 274.518 349.290, 266.643 351.066, 256.443 351.113 C 245.969 351.162, 237.295 349.213, 228.233 344.777 C 224.575 342.986, 175.978 307.222, 111.480 258.854 C 50.713 213.284, 0.771 176, 0.497 176 C 0.224 176, -0 225.098, -0 285.106 M 0.483 286 C 0.483 346.775, 0.603 371.637, 0.750 341.250 C 0.897 310.862, 0.897 261.137, 0.750 230.750 C 0.603 200.362, 0.483 225.225, 0.483 286" stroke="none" fill="#fffcfc" fill-rule="evenodd"/><path d="" stroke="none" fill="#fcfcfc" fill-rule="evenodd"/></svg>