<svg xmlns="http://www.w3.org/2000/svg" width="1040" height="665" viewBox="0 0 1040 665" version="1.1"><path d="" stroke="none" fill="#3c3c3c" fill-rule="evenodd"/><path d="M 1039.166 0.715 C 1038.630 4.635, 1021.793 18.552, 1010.987 24.006 C 1001.943 28.572, 996.223 29.730, 962 33.929 C 911.079 40.177, 897.293 41.714, 854 45.971 C 806.229 50.668, 757.239 56.136, 665 67.066 C 627.875 71.464, 559.025 79.333, 512 84.552 C 302.213 107.833, 255.521 114.330, 199.355 128.050 C 157.725 138.219, 112.732 153.620, 74 170.959 C 46.323 183.349, 31.518 193.094, 9.750 213.252 L 0 222.280 0 443.641 L 0 665.002 520.250 664.751 L 1040.500 664.500 1040.728 487.500 C 1040.914 342.980, 1039.801 -3.931, 1039.166 0.715 M 0.491 443.500 C 0.491 565.600, 0.608 615.401, 0.750 554.170 C 0.892 492.938, 0.892 393.038, 0.750 332.170 C 0.608 271.301, 0.491 321.400, 0.491 443.500" stroke="none" fill="#343434" fill-rule="evenodd"/></svg>