<svg xmlns="http://www.w3.org/2000/svg" width="1041" height="1000" viewBox="0 0 1041 1000" version="1.1"><path d="" stroke="none" fill="#383434" fill-rule="evenodd"/><path d="M 1039.272 31.567 C 1038.596 35.380, 1036.680 46.825, 1035.014 57 C 1030.918 82.016, 1027.828 93.956, 1022.937 103.677 C 1014.363 120.716, 995.597 146.584, 978.847 164.457 C 946.850 198.597, 881.736 235.576, 816.760 256.510 C 780.143 268.307, 704.115 287.413, 585.500 314.625 C 492.649 335.927, 448.979 345.201, 313 372.497 C 222.092 390.746, 204.771 394.581, 174.638 403.134 C 117.509 419.348, 65.670 440.063, 40.500 456.735 C 27.706 465.210, 14.592 475.628, 6.750 483.549 L 0 490.366 0 745.184 L 0 1000.002 520.750 999.751 L 1041.500 999.500 1041.728 838.500 C 1041.854 749.950, 1041.629 530.605, 1041.228 351.067 C 1040.642 88.108, 1040.261 25.982, 1039.272 31.567 M 0.492 745 C 0.492 885.525, 0.608 943.012, 0.750 872.750 C 0.892 802.487, 0.892 687.512, 0.750 617.250 C 0.608 546.987, 0.492 604.475, 0.492 745" stroke="none" fill="#343434" fill-rule="evenodd"/></svg>