<svg xmlns="http://www.w3.org/2000/svg" width="1074" height="487" viewBox="0 0 1074 487" version="1.1"><path d="" stroke="none" fill="#3c3c3c" fill-rule="evenodd"/><path d="M 0.099 243.750 L 0.198 487.500 2.577 472.733 C 6.347 449.334, 9.841 433.311, 12.876 425.493 C 22.505 400.698, 56.976 356.605, 83 335.799 C 101.981 320.623, 130.694 303.133, 161.500 287.982 C 203.777 267.189, 236.119 256.435, 318 235.947 C 360.658 225.274, 431.909 208.501, 483.500 196.989 C 495.600 194.289, 515.625 189.789, 528 186.989 C 585.282 174.030, 689.145 152.723, 815.500 128.010 C 869.050 117.536, 907.763 107.363, 949.262 92.859 C 1015.665 69.652, 1045.472 53.038, 1067.061 27.200 L 1073.996 18.899 1074.250 252.700 L 1074.504 486.500 1074.752 243.250 L 1075 0 537.500 0 L 0 0 0.099 243.750 M 0.492 244 C 0.492 377.925, 0.608 432.712, 0.750 365.750 C 0.892 298.787, 0.892 189.212, 0.750 122.250 C 0.608 55.287, 0.492 110.075, 0.492 244" stroke="none" fill="#343434" fill-rule="evenodd"/></svg>