<svg xmlns="http://www.w3.org/2000/svg" width="512" height="512" viewBox="0 0 512 512" version="1.1"><path d="" stroke="none" fill="#089c84" fill-rule="evenodd"/><path d="M 72.853 12.874 C 47.196 19.941, 24.021 26.775, 21.353 28.062 C 14.769 31.236, 6.997 39.235, 3.439 46.500 L 0.500 52.500 0.581 77.500 C 0.671 105.142, 2.540 123.584, 8.081 151.500 C 32.602 275.029, 108.084 382.639, 216.067 448.012 C 250.291 468.732, 292.560 486.739, 332 497.401 C 367.416 506.975, 410.330 512.556, 443 511.838 C 458.846 511.489, 459.738 511.358, 465.500 508.549 C 473.079 504.853, 480.878 497.106, 484.174 490 C 485.576 486.975, 492.462 463.385, 499.474 437.577 C 512.190 390.777, 512.222 390.631, 511.800 381.577 C 511.169 368.033, 505.891 358.149, 495.454 350.969 C 493.024 349.296, 467.740 338.201, 439.268 326.312 C 388.423 305.082, 387.351 304.688, 379.128 304.216 C 368.363 303.599, 361.629 305.147, 354.203 309.947 C 349.409 313.046, 344.378 318.552, 327.986 338.641 C 316.830 352.313, 306.908 364.348, 305.938 365.385 C 304.220 367.221, 303.867 367.107, 292.337 361.006 C 231.724 328.933, 183.070 280.281, 151.002 219.677 C 146.910 211.944, 145.085 207.515, 145.727 206.873 C 146.267 206.333, 158.121 196.578, 172.069 185.196 C 199.247 163.017, 203.715 158.227, 206.650 148.131 C 207.779 144.249, 208.093 140.128, 207.757 133.606 L 207.288 124.500 185.570 72.573 C 173.625 44.013, 162.533 18.729, 160.921 16.386 C 157.207 10.987, 150.736 5.667, 144.420 2.820 C 140.613 1.104, 137.238 0.537, 129.500 0.314 L 119.500 0.025 72.853 12.874" stroke="none" fill="#049c84" fill-rule="evenodd"/></svg>