<?xml version="1.0" encoding="UTF-8" standalone="no"?>
<!DOCTYPE svg PUBLIC "-//W3C//DTD SVG 1.1//EN" "http://www.w3.org/Graphics/SVG/1.1/DTD/svg11.dtd">
<svg width="100%" height="100%" viewBox="0 0 331 112" version="1.1" xmlns="http://www.w3.org/2000/svg" xmlns:xlink="http://www.w3.org/1999/xlink" xml:space="preserve" xmlns:serif="http://www.serif.com/" style="fill-rule:evenodd;clip-rule:evenodd;stroke-linejoin:round;stroke-miterlimit:2;">
    <g transform="matrix(1,0,0,1,-403.581,-1182.64)">
        <g transform="matrix(2.30578,0,0,2.30578,-875.911,-124.344)">
            <path d="M577.562,584.797C580.147,584.797 582.249,582.695 582.249,580.11C582.249,577.525 580.147,575.422 577.562,575.422C574.977,575.422 572.874,577.525 572.874,580.11C572.874,582.695 574.977,584.797 577.562,584.797ZM577.562,578.547C578.422,578.547 579.124,579.247 579.124,580.11C579.124,580.972 578.422,581.672 577.562,581.672C576.701,581.672 575.999,580.972 575.999,580.11C575.999,579.247 576.701,578.547 577.562,578.547ZM580.687,597.297C578.102,597.297 575.999,599.4 575.999,601.985C575.999,604.57 578.102,606.672 580.687,606.672C583.272,606.672 585.374,604.57 585.374,601.985C585.374,599.4 583.272,597.297 580.687,597.297ZM580.687,603.547C579.826,603.547 579.124,602.847 579.124,601.985C579.124,601.122 579.826,600.422 580.687,600.422C581.547,600.422 582.249,601.122 582.249,601.985C582.249,602.847 581.547,603.547 580.687,603.547ZM579.124,566.828C565.748,566.828 554.906,577.671 554.906,591.047C554.906,604.423 565.748,615.266 579.124,615.266C592.479,615.266 603.343,604.402 603.343,591.047C603.343,577.693 592.479,566.828 579.124,566.828ZM558.031,591.047C558.031,579.416 567.493,569.953 579.124,569.953C584.507,569.953 588.89,574.334 588.89,579.719C588.89,585.104 584.507,589.485 579.124,589.485C572.017,589.485 566.234,595.268 566.234,602.375C566.234,604.813 566.953,607.071 568.134,609.017C562.086,605.304 558.031,598.649 558.031,591.047ZM579.124,612.141C573.741,612.141 569.359,607.76 569.359,602.375C569.359,596.991 573.741,592.61 579.124,592.61C586.232,592.61 592.015,586.827 592.015,579.719C592.015,577.294 591.343,575.024 590.175,573.084C596.196,576.803 600.218,583.463 600.218,591.047C600.218,602.679 590.754,612.141 579.124,612.141Z" style="fill-rule:nonzero;"/>
        </g>
        <g transform="matrix(1,0,0,1,-212.624,320.325)">
            <path d="M748.689,910.008L748.689,880.208L736.989,880.208L736.989,875.008L766.389,875.008L766.389,880.208L754.689,880.208L754.689,910.008L748.689,910.008Z" style="fill-rule:nonzero;"/>
            <path d="M762.189,910.008L775.939,875.008L782.889,875.008L796.439,910.008L789.989,910.008L786.389,900.208L772.039,900.208L768.439,910.008L762.189,910.008ZM773.789,895.508L784.739,895.508L779.239,880.708L773.789,895.508Z" style="fill-rule:nonzero;"/>
            <path d="M800.689,910.008L800.689,875.008L806.689,875.008L806.689,910.008L800.689,910.008ZM824.989,910.558C821.722,910.558 818.93,909.708 816.614,908.008C814.297,906.308 812.655,903.908 811.689,900.808L817.189,898.758C817.922,900.891 818.939,902.499 820.239,903.583C821.539,904.666 823.139,905.208 825.039,905.208C827.339,905.208 829.189,904.408 830.589,902.808C831.989,901.208 832.689,899.091 832.689,896.458L832.689,875.008L838.689,875.008L838.689,896.558C838.689,899.391 838.122,901.858 836.989,903.958C835.855,906.058 834.264,907.683 832.214,908.833C830.164,909.983 827.755,910.558 824.989,910.558Z" style="fill-rule:nonzero;"/>
            <rect x="846.039" y="875.008" width="6" height="35" style="fill-rule:nonzero;"/>
            <path d="M887.539,910.558C885.072,910.558 882.764,910.099 880.614,909.183C878.464,908.266 876.58,906.983 874.964,905.333C873.347,903.683 872.089,901.766 871.189,899.583C870.289,897.399 869.839,895.041 869.839,892.508C869.839,889.974 870.289,887.616 871.189,885.433C872.089,883.249 873.347,881.333 874.964,879.683C876.58,878.033 878.464,876.749 880.614,875.833C882.764,874.916 885.072,874.458 887.539,874.458C890.005,874.458 892.314,874.916 894.464,875.833C896.614,876.749 898.497,878.033 900.114,879.683C901.73,881.333 902.989,883.249 903.889,885.433C904.789,887.616 905.239,889.974 905.239,892.508C905.239,895.041 904.789,897.399 903.889,899.583C902.989,901.766 901.73,903.683 900.114,905.333C898.497,906.983 896.614,908.266 894.464,909.183C892.314,910.099 890.005,910.558 887.539,910.558ZM887.539,905.158C889.172,905.158 890.689,904.841 892.089,904.208C893.489,903.574 894.714,902.683 895.764,901.533C896.814,900.383 897.63,899.041 898.214,897.508C898.797,895.974 899.089,894.308 899.089,892.508C899.089,890.708 898.797,889.041 898.214,887.508C897.63,885.974 896.814,884.633 895.764,883.483C894.714,882.333 893.489,881.441 892.089,880.808C890.689,880.174 889.172,879.858 887.539,879.858C885.905,879.858 884.389,880.174 882.989,880.808C881.589,881.441 880.364,882.333 879.314,883.483C878.264,884.633 877.439,885.974 876.839,887.508C876.239,889.041 875.939,890.708 875.939,892.508C875.939,894.308 876.239,895.974 876.839,897.508C877.439,899.041 878.264,900.383 879.314,901.533C880.364,902.683 881.589,903.574 882.989,904.208C884.389,904.841 885.905,905.158 887.539,905.158Z" style="fill-rule:nonzero;"/>
            <path d="M928.389,910.558C925.855,910.558 923.505,910.091 921.339,909.158C919.172,908.224 917.264,906.933 915.614,905.283C913.964,903.633 912.68,901.716 911.764,899.533C910.847,897.349 910.389,895.008 910.389,892.508C910.389,890.008 910.847,887.666 911.764,885.483C912.68,883.299 913.955,881.383 915.589,879.733C917.222,878.083 919.122,876.791 921.289,875.858C923.455,874.924 925.805,874.458 928.339,874.458C931.139,874.458 933.78,874.991 936.264,876.058C938.747,877.124 940.822,878.674 942.489,880.708L938.289,884.508C937.089,882.974 935.622,881.816 933.889,881.033C932.155,880.249 930.305,879.858 928.339,879.858C926.639,879.858 925.08,880.174 923.664,880.808C922.247,881.441 921.005,882.333 919.939,883.483C918.872,884.633 918.039,885.974 917.439,887.508C916.839,889.041 916.539,890.708 916.539,892.508C916.539,894.308 916.839,895.983 917.439,897.533C918.039,899.083 918.88,900.424 919.964,901.558C921.047,902.691 922.305,903.583 923.739,904.233C925.172,904.883 926.755,905.208 928.489,905.208C930.355,905.208 932.039,904.816 933.539,904.033C935.039,903.249 936.28,902.158 937.264,900.758C938.247,899.358 938.855,897.791 939.089,896.058L928.689,896.058L928.689,890.908L945.439,890.908L945.439,892.858C945.439,895.391 945.014,897.724 944.164,899.858C943.314,901.991 942.122,903.866 940.589,905.483C939.055,907.099 937.255,908.349 935.189,909.233C933.122,910.116 930.855,910.558 928.389,910.558Z" style="fill-rule:nonzero;"/>
            <path d="M766.789,961.858L764.089,958.558C762.889,959.191 761.614,959.683 760.264,960.033C758.914,960.383 757.505,960.558 756.039,960.558C753.572,960.558 751.264,960.099 749.114,959.183C746.964,958.266 745.08,956.983 743.464,955.333C741.847,953.683 740.589,951.766 739.689,949.583C738.789,947.399 738.339,945.041 738.339,942.508C738.339,939.974 738.789,937.616 739.689,935.433C740.589,933.249 741.847,931.333 743.464,929.683C745.08,928.033 746.964,926.749 749.114,925.833C751.264,924.916 753.572,924.458 756.039,924.458C758.505,924.458 760.814,924.916 762.964,925.833C765.114,926.749 766.997,928.033 768.614,929.683C770.23,931.333 771.489,933.249 772.389,935.433C773.289,937.616 773.739,939.974 773.739,942.508C773.739,945.074 773.264,947.483 772.314,949.733C771.364,951.983 770.039,953.924 768.339,955.558L772.239,960.308L766.789,961.858ZM756.039,955.158C756.839,955.158 757.614,955.066 758.364,954.883C759.114,954.699 759.822,954.424 760.489,954.058L756.089,948.708L761.539,947.158L764.689,950.958C765.589,949.858 766.297,948.591 766.814,947.158C767.33,945.724 767.589,944.174 767.589,942.508C767.589,940.708 767.297,939.041 766.714,937.508C766.13,935.974 765.314,934.633 764.264,933.483C763.214,932.333 761.989,931.441 760.589,930.808C759.189,930.174 757.672,929.858 756.039,929.858C754.405,929.858 752.889,930.174 751.489,930.808C750.089,931.441 748.864,932.333 747.814,933.483C746.764,934.633 745.939,935.974 745.339,937.508C744.739,939.041 744.439,940.708 744.439,942.508C744.439,944.308 744.739,945.974 745.339,947.508C745.939,949.041 746.764,950.383 747.814,951.533C748.864,952.683 750.089,953.574 751.489,954.208C752.889,954.841 754.405,955.158 756.039,955.158Z" style="fill-rule:nonzero;"/>
            <rect x="780.289" y="925.008" width="6" height="35" style="fill-rule:nonzero;"/>
            <path d="M810.789,960.558C808.255,960.558 805.905,960.091 803.739,959.158C801.572,958.224 799.664,956.933 798.014,955.283C796.364,953.633 795.08,951.716 794.164,949.533C793.247,947.349 792.789,945.008 792.789,942.508C792.789,940.008 793.247,937.666 794.164,935.483C795.08,933.299 796.355,931.383 797.989,929.733C799.622,928.083 801.522,926.791 803.689,925.858C805.855,924.924 808.205,924.458 810.739,924.458C813.539,924.458 816.18,924.991 818.664,926.058C821.147,927.124 823.222,928.674 824.889,930.708L820.689,934.508C819.489,932.974 818.022,931.816 816.289,931.033C814.555,930.249 812.705,929.858 810.739,929.858C809.039,929.858 807.48,930.174 806.064,930.808C804.647,931.441 803.405,932.333 802.339,933.483C801.272,934.633 800.439,935.974 799.839,937.508C799.239,939.041 798.939,940.708 798.939,942.508C798.939,944.308 799.239,945.983 799.839,947.533C800.439,949.083 801.28,950.424 802.364,951.558C803.447,952.691 804.705,953.583 806.139,954.233C807.572,954.883 809.155,955.208 810.889,955.208C812.755,955.208 814.439,954.816 815.939,954.033C817.439,953.249 818.68,952.158 819.664,950.758C820.647,949.358 821.255,947.791 821.489,946.058L811.089,946.058L811.089,940.908L827.839,940.908L827.839,942.858C827.839,945.391 827.414,947.724 826.564,949.858C825.714,951.991 824.522,953.866 822.989,955.483C821.455,957.099 819.655,958.349 817.589,959.233C815.522,960.116 813.255,960.558 810.789,960.558Z" style="fill-rule:nonzero;"/>
            <path d="M850.639,960.558C848.172,960.558 845.864,960.099 843.714,959.183C841.564,958.266 839.68,956.983 838.064,955.333C836.447,953.683 835.189,951.766 834.289,949.583C833.389,947.399 832.939,945.041 832.939,942.508C832.939,939.974 833.389,937.616 834.289,935.433C835.189,933.249 836.447,931.333 838.064,929.683C839.68,928.033 841.564,926.749 843.714,925.833C845.864,924.916 848.172,924.458 850.639,924.458C853.105,924.458 855.414,924.916 857.564,925.833C859.714,926.749 861.597,928.033 863.214,929.683C864.83,931.333 866.089,933.249 866.989,935.433C867.889,937.616 868.339,939.974 868.339,942.508C868.339,945.041 867.889,947.399 866.989,949.583C866.089,951.766 864.83,953.683 863.214,955.333C861.597,956.983 859.714,958.266 857.564,959.183C855.414,960.099 853.105,960.558 850.639,960.558ZM850.639,955.158C852.272,955.158 853.789,954.841 855.189,954.208C856.589,953.574 857.814,952.683 858.864,951.533C859.914,950.383 860.73,949.041 861.314,947.508C861.897,945.974 862.189,944.308 862.189,942.508C862.189,940.708 861.897,939.041 861.314,937.508C860.73,935.974 859.914,934.633 858.864,933.483C857.814,932.333 856.589,931.441 855.189,930.808C853.789,930.174 852.272,929.858 850.639,929.858C849.005,929.858 847.489,930.174 846.089,930.808C844.689,931.441 843.464,932.333 842.414,933.483C841.364,934.633 840.539,935.974 839.939,937.508C839.339,939.041 839.039,940.708 839.039,942.508C839.039,944.308 839.339,945.974 839.939,947.508C840.539,949.041 841.364,950.383 842.414,951.533C843.464,952.683 844.689,953.574 846.089,954.208C847.489,954.841 849.005,955.158 850.639,955.158Z" style="fill-rule:nonzero;"/>
            <path d="M875.139,960.008L875.139,925.008L880.989,925.008L899.239,950.458L899.139,925.008L904.789,925.008L904.789,960.008L899.439,960.008L880.689,933.858L880.789,960.008L875.139,960.008Z" style="fill-rule:nonzero;"/>
            <path d="M929.539,960.558C927.005,960.558 924.655,960.091 922.489,959.158C920.322,958.224 918.414,956.933 916.764,955.283C915.114,953.633 913.83,951.716 912.914,949.533C911.997,947.349 911.539,945.008 911.539,942.508C911.539,940.008 911.997,937.666 912.914,935.483C913.83,933.299 915.105,931.383 916.739,929.733C918.372,928.083 920.272,926.791 922.439,925.858C924.605,924.924 926.955,924.458 929.489,924.458C932.289,924.458 934.93,924.991 937.414,926.058C939.897,927.124 941.972,928.674 943.639,930.708L939.439,934.508C938.239,932.974 936.772,931.816 935.039,931.033C933.305,930.249 931.455,929.858 929.489,929.858C927.789,929.858 926.23,930.174 924.814,930.808C923.397,931.441 922.155,932.333 921.089,933.483C920.022,934.633 919.189,935.974 918.589,937.508C917.989,939.041 917.689,940.708 917.689,942.508C917.689,944.308 917.989,945.983 918.589,947.533C919.189,949.083 920.03,950.424 921.114,951.558C922.197,952.691 923.455,953.583 924.889,954.233C926.322,954.883 927.905,955.208 929.639,955.208C931.505,955.208 933.189,954.816 934.689,954.033C936.189,953.249 937.43,952.158 938.414,950.758C939.397,949.358 940.005,947.791 940.239,946.058L929.839,946.058L929.839,940.908L946.589,940.908L946.589,942.858C946.589,945.391 946.164,947.724 945.314,949.858C944.464,951.991 943.272,953.866 941.739,955.483C940.205,957.099 938.405,958.349 936.339,959.233C934.272,960.116 932.005,960.558 929.539,960.558Z" style="fill-rule:nonzero;"/>
        </g>
    </g>
</svg>
